<mxfile host="app.diagrams.net" modified="2024-07-25T13:30:15.727Z" agent="Mozilla/5.0 (X11; Ubuntu; Linux x86_64; rv:128.0) Gecko/20100101 Firefox/128.0" etag="8EvUggz99CAkKvK6DOip" version="21.6.6" type="device">
  <diagram name="Page-1" id="0myDva8Vh7HxehcExe0T">
    <mxGraphModel dx="808" dy="483" grid="1" gridSize="10" guides="1" tooltips="1" connect="1" arrows="1" fold="1" page="1" pageScale="1" pageWidth="850" pageHeight="1100" math="0" shadow="0">
      <root>
        <mxCell id="0" />
        <mxCell id="1" parent="0" />
        <mxCell id="TRdjxi80Cxq1WFGEPJoQ-19" style="edgeStyle=orthogonalEdgeStyle;rounded=0;orthogonalLoop=1;jettySize=auto;html=1;exitX=1;exitY=0.5;exitDx=0;exitDy=0;entryX=0;entryY=0.5;entryDx=0;entryDy=0;strokeWidth=2;" edge="1" parent="1" source="TRdjxi80Cxq1WFGEPJoQ-1" target="TRdjxi80Cxq1WFGEPJoQ-15">
          <mxGeometry relative="1" as="geometry" />
        </mxCell>
        <mxCell id="TRdjxi80Cxq1WFGEPJoQ-1" value="&lt;font style=&quot;font-size: 15px;&quot;&gt;x&lt;sub&gt;0&lt;/sub&gt;&lt;/font&gt;" style="ellipse;whiteSpace=wrap;html=1;aspect=fixed;fillColor=#dae8fc;strokeColor=#6c8ebf;" vertex="1" parent="1">
          <mxGeometry x="200" y="140" width="30" height="30" as="geometry" />
        </mxCell>
        <mxCell id="TRdjxi80Cxq1WFGEPJoQ-2" value="" style="shape=curlyBracket;whiteSpace=wrap;html=1;rounded=1;labelPosition=left;verticalLabelPosition=middle;align=right;verticalAlign=middle;fillColor=#dae8fc;strokeColor=#6c8ebf;strokeWidth=3;size=0.5;" vertex="1" parent="1">
          <mxGeometry x="170" y="130" width="40" height="230" as="geometry" />
        </mxCell>
        <mxCell id="TRdjxi80Cxq1WFGEPJoQ-4" value="&lt;font&gt;Input&lt;br&gt;Values&lt;br&gt;&lt;/font&gt;" style="text;html=1;fontSize=24;fontStyle=1;verticalAlign=middle;align=center;fontColor=#67AB9F;" vertex="1" parent="1">
          <mxGeometry x="60" y="233" width="100" height="40" as="geometry" />
        </mxCell>
        <mxCell id="TRdjxi80Cxq1WFGEPJoQ-6" value="" style="endArrow=classic;html=1;rounded=0;entryX=0;entryY=0.5;entryDx=0;entryDy=0;strokeWidth=3;strokeColor=#a40000;" edge="1" parent="1" target="TRdjxi80Cxq1WFGEPJoQ-1">
          <mxGeometry width="50" height="50" relative="1" as="geometry">
            <mxPoint x="10" y="155" as="sourcePoint" />
            <mxPoint x="150" y="150" as="targetPoint" />
          </mxGeometry>
        </mxCell>
        <mxCell id="TRdjxi80Cxq1WFGEPJoQ-7" value="&lt;font style=&quot;font-size: 14px;&quot;&gt;Axon from a neuron&lt;/font&gt;" style="edgeLabel;html=1;align=center;verticalAlign=middle;resizable=0;points=[];" vertex="1" connectable="0" parent="TRdjxi80Cxq1WFGEPJoQ-6">
          <mxGeometry x="0.0316" y="-2" relative="1" as="geometry">
            <mxPoint as="offset" />
          </mxGeometry>
        </mxCell>
        <mxCell id="TRdjxi80Cxq1WFGEPJoQ-20" style="edgeStyle=orthogonalEdgeStyle;rounded=0;orthogonalLoop=1;jettySize=auto;html=1;exitX=1;exitY=0.5;exitDx=0;exitDy=0;entryX=0;entryY=0.5;entryDx=0;entryDy=0;strokeWidth=2;" edge="1" parent="1" source="TRdjxi80Cxq1WFGEPJoQ-8" target="TRdjxi80Cxq1WFGEPJoQ-16">
          <mxGeometry relative="1" as="geometry" />
        </mxCell>
        <mxCell id="TRdjxi80Cxq1WFGEPJoQ-8" value="&lt;font style=&quot;font-size: 15px;&quot;&gt;x&lt;sub&gt;1&lt;/sub&gt;&lt;/font&gt;" style="ellipse;whiteSpace=wrap;html=1;aspect=fixed;fillColor=#dae8fc;strokeColor=#6c8ebf;" vertex="1" parent="1">
          <mxGeometry x="200" y="200" width="30" height="30" as="geometry" />
        </mxCell>
        <mxCell id="TRdjxi80Cxq1WFGEPJoQ-9" value="" style="endArrow=classic;html=1;rounded=0;entryX=0;entryY=0.5;entryDx=0;entryDy=0;strokeWidth=3;strokeColor=#a40000;" edge="1" parent="1" target="TRdjxi80Cxq1WFGEPJoQ-8">
          <mxGeometry width="50" height="50" relative="1" as="geometry">
            <mxPoint x="10" y="215" as="sourcePoint" />
            <mxPoint x="150" y="210" as="targetPoint" />
          </mxGeometry>
        </mxCell>
        <mxCell id="TRdjxi80Cxq1WFGEPJoQ-10" value="&lt;font style=&quot;font-size: 14px;&quot;&gt;Axon from a neuron &lt;/font&gt;" style="edgeLabel;html=1;align=center;verticalAlign=middle;resizable=0;points=[];" vertex="1" connectable="0" parent="TRdjxi80Cxq1WFGEPJoQ-9">
          <mxGeometry x="0.0316" y="-2" relative="1" as="geometry">
            <mxPoint as="offset" />
          </mxGeometry>
        </mxCell>
        <mxCell id="TRdjxi80Cxq1WFGEPJoQ-11" value="" style="endArrow=none;dashed=1;html=1;dashPattern=1 3;strokeWidth=4;rounded=0;strokeColor=#204a87;" edge="1" parent="1">
          <mxGeometry width="50" height="50" relative="1" as="geometry">
            <mxPoint x="214.5" y="310" as="sourcePoint" />
            <mxPoint x="214.5" y="240" as="targetPoint" />
          </mxGeometry>
        </mxCell>
        <mxCell id="TRdjxi80Cxq1WFGEPJoQ-22" style="edgeStyle=orthogonalEdgeStyle;rounded=0;orthogonalLoop=1;jettySize=auto;html=1;exitX=1;exitY=0.5;exitDx=0;exitDy=0;entryX=0;entryY=0.5;entryDx=0;entryDy=0;strokeWidth=2;" edge="1" parent="1" source="TRdjxi80Cxq1WFGEPJoQ-12" target="TRdjxi80Cxq1WFGEPJoQ-17">
          <mxGeometry relative="1" as="geometry" />
        </mxCell>
        <mxCell id="TRdjxi80Cxq1WFGEPJoQ-12" value="&lt;font style=&quot;font-size: 15px;&quot;&gt;x&lt;sub&gt;e&lt;/sub&gt;&lt;/font&gt;" style="ellipse;whiteSpace=wrap;html=1;aspect=fixed;fillColor=#dae8fc;strokeColor=#6c8ebf;" vertex="1" parent="1">
          <mxGeometry x="200" y="320" width="30" height="30" as="geometry" />
        </mxCell>
        <mxCell id="TRdjxi80Cxq1WFGEPJoQ-13" value="" style="endArrow=classic;html=1;rounded=0;entryX=0;entryY=0.5;entryDx=0;entryDy=0;strokeWidth=3;strokeColor=#a40000;" edge="1" parent="1" target="TRdjxi80Cxq1WFGEPJoQ-12">
          <mxGeometry width="50" height="50" relative="1" as="geometry">
            <mxPoint x="10" y="335" as="sourcePoint" />
            <mxPoint x="150" y="330" as="targetPoint" />
          </mxGeometry>
        </mxCell>
        <mxCell id="TRdjxi80Cxq1WFGEPJoQ-14" value="&lt;font style=&quot;font-size: 14px;&quot;&gt;Axon from a neuron&lt;/font&gt;" style="edgeLabel;html=1;align=center;verticalAlign=middle;resizable=0;points=[];" vertex="1" connectable="0" parent="TRdjxi80Cxq1WFGEPJoQ-13">
          <mxGeometry x="0.0316" y="-2" relative="1" as="geometry">
            <mxPoint as="offset" />
          </mxGeometry>
        </mxCell>
        <mxCell id="TRdjxi80Cxq1WFGEPJoQ-26" style="edgeStyle=orthogonalEdgeStyle;rounded=0;orthogonalLoop=1;jettySize=auto;html=1;exitX=1;exitY=0.5;exitDx=0;exitDy=0;entryX=0;entryY=0;entryDx=0;entryDy=0;strokeWidth=2;strokeColor=#FF8000;" edge="1" parent="1" source="TRdjxi80Cxq1WFGEPJoQ-15" target="TRdjxi80Cxq1WFGEPJoQ-25">
          <mxGeometry relative="1" as="geometry">
            <Array as="points">
              <mxPoint x="450" y="155" />
              <mxPoint x="450" y="217" />
            </Array>
          </mxGeometry>
        </mxCell>
        <mxCell id="TRdjxi80Cxq1WFGEPJoQ-30" value="&lt;sub&gt;&lt;br&gt;&lt;/sub&gt;" style="edgeLabel;html=1;align=center;verticalAlign=middle;resizable=0;points=[];" vertex="1" connectable="0" parent="TRdjxi80Cxq1WFGEPJoQ-26">
          <mxGeometry x="0.046" y="2" relative="1" as="geometry">
            <mxPoint as="offset" />
          </mxGeometry>
        </mxCell>
        <mxCell id="TRdjxi80Cxq1WFGEPJoQ-31" value="&lt;font style=&quot;font-size: 13px;&quot;&gt;x&lt;sub&gt;0&lt;/sub&gt;w&lt;sub&gt;0&lt;/sub&gt;&lt;/font&gt;" style="edgeLabel;html=1;align=center;verticalAlign=middle;resizable=0;points=[];" vertex="1" connectable="0" parent="TRdjxi80Cxq1WFGEPJoQ-26">
          <mxGeometry x="0.1928" y="-1" relative="1" as="geometry">
            <mxPoint x="-49" y="-15" as="offset" />
          </mxGeometry>
        </mxCell>
        <mxCell id="TRdjxi80Cxq1WFGEPJoQ-15" value="&lt;font style=&quot;font-size: 15px;&quot;&gt;w&lt;sub&gt;0&lt;/sub&gt;&lt;/font&gt;" style="rounded=0;whiteSpace=wrap;html=1;fillColor=#f8cecc;strokeColor=#b85450;" vertex="1" parent="1">
          <mxGeometry x="300" y="140" width="40" height="30" as="geometry" />
        </mxCell>
        <mxCell id="TRdjxi80Cxq1WFGEPJoQ-27" style="edgeStyle=orthogonalEdgeStyle;rounded=0;orthogonalLoop=1;jettySize=auto;html=1;exitX=1;exitY=0.5;exitDx=0;exitDy=0;entryX=0;entryY=0.5;entryDx=0;entryDy=0;strokeWidth=2;strokeColor=#FF8000;" edge="1" parent="1" source="TRdjxi80Cxq1WFGEPJoQ-16" target="TRdjxi80Cxq1WFGEPJoQ-25">
          <mxGeometry relative="1" as="geometry">
            <Array as="points">
              <mxPoint x="390" y="215" />
              <mxPoint x="390" y="245" />
            </Array>
          </mxGeometry>
        </mxCell>
        <mxCell id="TRdjxi80Cxq1WFGEPJoQ-32" value="&lt;font style=&quot;font-size: 14px;&quot;&gt;x&lt;sub&gt;1&lt;/sub&gt;w&lt;sub&gt;1&lt;/sub&gt;&lt;/font&gt;" style="edgeLabel;html=1;align=center;verticalAlign=middle;resizable=0;points=[];" vertex="1" connectable="0" parent="TRdjxi80Cxq1WFGEPJoQ-27">
          <mxGeometry x="0.3003" y="1" relative="1" as="geometry">
            <mxPoint as="offset" />
          </mxGeometry>
        </mxCell>
        <mxCell id="TRdjxi80Cxq1WFGEPJoQ-16" value="&lt;font style=&quot;font-size: 15px;&quot;&gt;w&lt;sub&gt;2&lt;/sub&gt;&lt;/font&gt;" style="rounded=0;whiteSpace=wrap;html=1;fillColor=#f8cecc;strokeColor=#b85450;" vertex="1" parent="1">
          <mxGeometry x="300" y="200" width="40" height="30" as="geometry" />
        </mxCell>
        <mxCell id="TRdjxi80Cxq1WFGEPJoQ-28" style="edgeStyle=orthogonalEdgeStyle;rounded=0;orthogonalLoop=1;jettySize=auto;html=1;exitX=1;exitY=0.5;exitDx=0;exitDy=0;entryX=0;entryY=1;entryDx=0;entryDy=0;strokeWidth=2;strokeColor=#FF8000;" edge="1" parent="1" source="TRdjxi80Cxq1WFGEPJoQ-17" target="TRdjxi80Cxq1WFGEPJoQ-25">
          <mxGeometry relative="1" as="geometry" />
        </mxCell>
        <mxCell id="TRdjxi80Cxq1WFGEPJoQ-33" value="&lt;font style=&quot;font-size: 14px;&quot;&gt;x&lt;sub&gt;e&lt;/sub&gt;w&lt;sub&gt;e&lt;/sub&gt;&lt;/font&gt;" style="edgeLabel;html=1;align=center;verticalAlign=middle;resizable=0;points=[];" vertex="1" connectable="0" parent="TRdjxi80Cxq1WFGEPJoQ-28">
          <mxGeometry x="-0.0966" y="-2" relative="1" as="geometry">
            <mxPoint as="offset" />
          </mxGeometry>
        </mxCell>
        <mxCell id="TRdjxi80Cxq1WFGEPJoQ-17" value="&lt;font style=&quot;font-size: 15px;&quot;&gt;w&lt;sub&gt;e&lt;/sub&gt;&lt;/font&gt;" style="rounded=0;whiteSpace=wrap;html=1;fillColor=#f8cecc;strokeColor=#b85450;" vertex="1" parent="1">
          <mxGeometry x="300" y="320" width="40" height="30" as="geometry" />
        </mxCell>
        <mxCell id="TRdjxi80Cxq1WFGEPJoQ-18" value="&lt;font color=&quot;#ff0000&quot; style=&quot;font-size: 15px;&quot;&gt;Synapses&lt;/font&gt;" style="text;html=1;strokeColor=none;fillColor=none;align=center;verticalAlign=middle;whiteSpace=wrap;rounded=0;" vertex="1" parent="1">
          <mxGeometry x="285" y="90" width="70" height="30" as="geometry" />
        </mxCell>
        <mxCell id="TRdjxi80Cxq1WFGEPJoQ-21" value="" style="endArrow=none;dashed=1;html=1;dashPattern=1 3;strokeWidth=4;rounded=0;strokeColor=#FF0000;" edge="1" parent="1">
          <mxGeometry width="50" height="50" relative="1" as="geometry">
            <mxPoint x="319.5" y="310" as="sourcePoint" />
            <mxPoint x="319.5" y="240" as="targetPoint" />
          </mxGeometry>
        </mxCell>
        <mxCell id="TRdjxi80Cxq1WFGEPJoQ-23" value="&lt;div style=&quot;color: rgb(0, 0, 0); background-color: rgb(247, 247, 247); font-weight: normal; font-size: 14px; line-height: 19px;&quot;&gt;&lt;div&gt;&lt;font color=&quot;#ff0000&quot;&gt;Weights&lt;/font&gt;&lt;/div&gt;&lt;/div&gt;" style="text;html=1;strokeColor=none;fillColor=none;align=center;verticalAlign=middle;whiteSpace=wrap;rounded=0;" vertex="1" parent="1">
          <mxGeometry x="290" y="370" width="60" height="30" as="geometry" />
        </mxCell>
        <mxCell id="TRdjxi80Cxq1WFGEPJoQ-41" style="edgeStyle=orthogonalEdgeStyle;rounded=0;orthogonalLoop=1;jettySize=auto;html=1;entryX=0;entryY=0.5;entryDx=0;entryDy=0;" edge="1" parent="1" source="TRdjxi80Cxq1WFGEPJoQ-25" target="TRdjxi80Cxq1WFGEPJoQ-42">
          <mxGeometry relative="1" as="geometry">
            <mxPoint x="630" y="245" as="targetPoint" />
          </mxGeometry>
        </mxCell>
        <mxCell id="TRdjxi80Cxq1WFGEPJoQ-25" value="" style="ellipse;whiteSpace=wrap;html=1;aspect=fixed;fillColor=#dae8fc;strokeColor=#6c8ebf;" vertex="1" parent="1">
          <mxGeometry x="485" y="205" width="80" height="80" as="geometry" />
        </mxCell>
        <mxCell id="TRdjxi80Cxq1WFGEPJoQ-29" value="&lt;div style=&quot;color: rgb(0, 0, 0); background-color: rgb(247, 247, 247); font-size: 14px; line-height: 19px;&quot;&gt;&lt;div&gt;&lt;b&gt;&lt;font color=&quot;#ff8000&quot;&gt;Dentrite&lt;/font&gt;&lt;/b&gt;&lt;/div&gt;&lt;/div&gt;" style="text;html=1;strokeColor=none;fillColor=none;align=center;verticalAlign=middle;whiteSpace=wrap;rounded=0;" vertex="1" parent="1">
          <mxGeometry x="425" y="110" width="60" height="30" as="geometry" />
        </mxCell>
        <mxCell id="TRdjxi80Cxq1WFGEPJoQ-36" style="edgeStyle=orthogonalEdgeStyle;rounded=0;orthogonalLoop=1;jettySize=auto;html=1;exitX=1;exitY=0.5;exitDx=0;exitDy=0;entryX=0.5;entryY=1;entryDx=0;entryDy=0;strokeColor=#ce5c00;strokeWidth=2;" edge="1" parent="1" source="TRdjxi80Cxq1WFGEPJoQ-34" target="TRdjxi80Cxq1WFGEPJoQ-25">
          <mxGeometry relative="1" as="geometry" />
        </mxCell>
        <mxCell id="TRdjxi80Cxq1WFGEPJoQ-37" value="&lt;font style=&quot;font-size: 14px;&quot;&gt;b&lt;/font&gt;" style="edgeLabel;html=1;align=center;verticalAlign=middle;resizable=0;points=[];" vertex="1" connectable="0" parent="TRdjxi80Cxq1WFGEPJoQ-36">
          <mxGeometry x="-0.2766" relative="1" as="geometry">
            <mxPoint as="offset" />
          </mxGeometry>
        </mxCell>
        <mxCell id="TRdjxi80Cxq1WFGEPJoQ-34" value="&lt;font style=&quot;font-size: 15px;&quot;&gt;b&lt;/font&gt;" style="ellipse;whiteSpace=wrap;html=1;aspect=fixed;fillColor=#dae8fc;strokeColor=#6c8ebf;" vertex="1" parent="1">
          <mxGeometry x="305" y="420" width="30" height="30" as="geometry" />
        </mxCell>
        <mxCell id="TRdjxi80Cxq1WFGEPJoQ-35" value="&lt;font color=&quot;#204a87&quot;&gt;Bias&lt;/font&gt;" style="text;html=1;strokeColor=none;fillColor=none;align=center;verticalAlign=middle;whiteSpace=wrap;rounded=0;" vertex="1" parent="1">
          <mxGeometry x="290" y="460" width="60" height="30" as="geometry" />
        </mxCell>
        <mxCell id="TRdjxi80Cxq1WFGEPJoQ-39" value="" style="shape=image;html=1;verticalAlign=top;verticalLabelPosition=bottom;labelBackgroundColor=#ffffff;imageAspect=0;aspect=fixed;image=https://cdn1.iconfinder.com/data/icons/KDE_Crystal_Diamond_2.5_Classical_Mod/128x128/apps/ooo-math.png" vertex="1" parent="1">
          <mxGeometry x="506" y="226" width="38" height="38" as="geometry" />
        </mxCell>
        <mxCell id="TRdjxi80Cxq1WFGEPJoQ-40" value="&lt;font style=&quot;font-size: 14px;&quot;&gt;&lt;font color=&quot;#204a87&quot;&gt;Summing&lt;br&gt;Function&lt;/font&gt;&lt;br&gt;&lt;/font&gt;" style="text;html=1;strokeColor=none;fillColor=none;align=center;verticalAlign=middle;whiteSpace=wrap;rounded=0;" vertex="1" parent="1">
          <mxGeometry x="495" y="160" width="60" height="30" as="geometry" />
        </mxCell>
        <mxCell id="TRdjxi80Cxq1WFGEPJoQ-46" style="edgeStyle=orthogonalEdgeStyle;rounded=0;orthogonalLoop=1;jettySize=auto;html=1;entryX=0;entryY=0.5;entryDx=0;entryDy=0;" edge="1" parent="1" source="TRdjxi80Cxq1WFGEPJoQ-42" target="TRdjxi80Cxq1WFGEPJoQ-48">
          <mxGeometry relative="1" as="geometry">
            <mxPoint x="820" y="245" as="targetPoint" />
          </mxGeometry>
        </mxCell>
        <mxCell id="TRdjxi80Cxq1WFGEPJoQ-42" value="&lt;font style=&quot;font-size: 17px;&quot;&gt;φ(vk)&lt;/font&gt;" style="rounded=1;whiteSpace=wrap;html=1;fillColor=#e1d5e7;strokeColor=#9673a6;" vertex="1" parent="1">
          <mxGeometry x="688" y="215" width="72" height="60" as="geometry" />
        </mxCell>
        <mxCell id="TRdjxi80Cxq1WFGEPJoQ-43" value="&lt;font style=&quot;font-size: 14px;&quot;&gt;Induced field&lt;/font&gt;" style="text;html=1;strokeColor=none;fillColor=none;align=center;verticalAlign=middle;whiteSpace=wrap;rounded=0;" vertex="1" parent="1">
          <mxGeometry x="580" y="190" width="90" height="30" as="geometry" />
        </mxCell>
        <mxCell id="TRdjxi80Cxq1WFGEPJoQ-44" value="&lt;font style=&quot;font-size: 14px;&quot;&gt;vk&lt;/font&gt;" style="text;html=1;strokeColor=none;fillColor=none;align=center;verticalAlign=middle;whiteSpace=wrap;rounded=0;" vertex="1" parent="1">
          <mxGeometry x="595" y="215" width="60" height="30" as="geometry" />
        </mxCell>
        <mxCell id="TRdjxi80Cxq1WFGEPJoQ-45" value="&lt;font style=&quot;font-size: 14px;&quot;&gt;&lt;font color=&quot;#5c3566&quot;&gt;Activation Function&lt;/font&gt;&lt;br&gt;&lt;/font&gt;" style="text;html=1;strokeColor=none;fillColor=none;align=center;verticalAlign=middle;whiteSpace=wrap;rounded=0;" vertex="1" parent="1">
          <mxGeometry x="679" y="170" width="90" height="30" as="geometry" />
        </mxCell>
        <mxCell id="TRdjxi80Cxq1WFGEPJoQ-48" value="&lt;font style=&quot;font-size: 15px;&quot;&gt;y&lt;/font&gt;" style="ellipse;whiteSpace=wrap;html=1;aspect=fixed;fillColor=#d5e8d4;strokeColor=#82b366;" vertex="1" parent="1">
          <mxGeometry x="827" y="230" width="30" height="30" as="geometry" />
        </mxCell>
        <mxCell id="TRdjxi80Cxq1WFGEPJoQ-49" value="&lt;b&gt;&lt;font color=&quot;#4e9a06&quot; style=&quot;font-size: 15px;&quot;&gt;Output&lt;/font&gt;&lt;/b&gt;" style="text;html=1;strokeColor=none;fillColor=none;align=center;verticalAlign=middle;whiteSpace=wrap;rounded=0;" vertex="1" parent="1">
          <mxGeometry x="812" y="185" width="60" height="30" as="geometry" />
        </mxCell>
        <mxCell id="TRdjxi80Cxq1WFGEPJoQ-50" value="&lt;font color=&quot;#4e9a06&quot;&gt;&lt;b&gt;Axon&lt;/b&gt;&lt;/font&gt;" style="text;html=1;strokeColor=none;fillColor=none;align=center;verticalAlign=middle;whiteSpace=wrap;rounded=0;" vertex="1" parent="1">
          <mxGeometry x="812" y="273" width="60" height="30" as="geometry" />
        </mxCell>
      </root>
    </mxGraphModel>
  </diagram>
</mxfile>
